PathFileType	4	(X/Y/Z)	5_coords_data.trc
DataRate	CameraRate	NumFrames	NumMarkers	Units	OrigDataRate	OrigDataStartFrame	OrigNumFrames
30.0	30.0	6	21	m	30.0	61	70
Frame#	Time	THUMB_TIP	THUMB_IP	THUMB_MCP	THUMB_CMC	INDEX_TIP	INDEX_DIP	INDEX_PIP	INDEX_MCP	MIDDLE_TIP	MIDDLE_DIP	MIDDLE_PIP	MIDDLE_MCP	RING_TIP	RING_DIP	RING_PIP	RING_MCP	PINKY_TIP	PINKY_DIP	PINKY_PIP	PINKY_MCP	WRIST
X1	Y1	Z1	X2	Y2	Z2	X3	Y3	Z3	X4	Y4	Z4	X5	Y5	Z5	X6	Y6	Z6	X7	Y7	Z7	X8	Y8	Z8	X9	Y9	Z9	X10	Y10	Z10	X11	Y11	Z11	X12	Y12	Z12	X13	Y13	Z13	X14	Y14	Z14	X15	Y15	Z15	X16	Y16	Z16	X17	Y17	Z17	X18	Y18	Z18	X19	Y19	Z19	X20	Y20	Z20	X21	Y21	Z21
59	1.9999999999999911	0.48637232211302317	0.010948250100399737	-0.16539160363575245	0.4822536851383501	0.0023733824286416016	-0.14447490040884087	0.4632471999869253	0.0004499335467818	-0.11990105523582119	0.46655475415367964	-0.01938868122955767	-0.08008423154042835	0.583778759485352	0.037548894310015124	-0.14640118835578214	0.5675257174405478	0.03462004205452668	-0.13896745115600523	0.5454112560178787	0.03083778140833565	-0.12762483534705032	0.5092251564137581	0.018292607353221635	-0.10900170732387501	0.6070595338133715	0.027763019607529416	-0.1259134731671681	0.5897557060914653	0.024592146385775226	-0.12160962498418651	0.5625764833157226	0.020933952678487633	-0.11174468615485206	0.5226114974279502	0.012867416577882596	-0.09347233492881132	0.6103212269520705	0.020128088676577227	-0.10431063193163823	0.5936204110708732	0.015898243822508373	-0.09900109697904041	0.570347542022307	0.012054241372724428	-0.09101503471943159	0.5322432330108599	0.0034217320575320453	-0.08061011993442382	0.6054826299634541	0.006684944808908633	-0.07077211362261512	0.5888350068616958	0.002989740296847787	-0.06928816326096268	0.568269964446109	-0.001003511496133369	-0.06789353443472548	0.5334067998824561	-0.010228504878901312	-0.0673081245821052	0.4622830810018608	-0.023011742144276925	-0.051989820119430985
60	2.0333333333333243	0.48699480090935787	0.010722938415862304	-0.1652647654454385	0.48269595067909776	0.0022248375449136493	-0.1443529943993273	0.46348250039980543	0.00037040187098663635	-0.11993528777695131	0.4666030604113275	-0.019423986394513648	-0.08008137581828509	0.583856385456754	0.03771488285035374	-0.14616891293800383	0.567591734333917	0.03478102536699673	-0.13876259103575428	0.5454682694947554	0.03098298511336045	-0.12744282837295345	0.5092556192957436	0.018432204808250918	-0.10887516903482221	0.6071206087038953	0.027400218483085104	-0.12589552518303648	0.589804726141169	0.024339797115262296	-0.12156031675376296	0.5626179320361154	0.02084205901140096	-0.11165811475389299	0.5226362213567526	0.012992046339689034	-0.09332813839805218	0.610417571001063	0.01978426197358224	-0.10423085883224881	0.5936952961720492	0.01566593323633242	-0.09890123474091955	0.5704075746106914	0.01196267352658853	-0.09089199813542106	0.5322691900034261	0.003512665537389492	-0.08046214585790529	0.6055483254113647	0.006503763828124509	-0.07073484540381975	0.588889161543063	0.0028674116194075117	-0.06923511148634448	0.5683134601587945	-0.0010594789308259744	-0.06780960731171035	0.5334289979756945	-0.01020076045388213	-0.0671813388085136	0.4622830810018609	-0.023011742144276925	-0.051989820119430985
62	2.0666666666666687	0.4876378660642958	0.010492572586506321	-0.16513010455634175	0.4831546252695049	0.002076691586994306	-0.14422380170342258	0.46372770025359644	0.0002979386072797796	-0.11996992320402745	0.4666546679369986	-0.01944566476182258	-0.08007615193351592	0.5839531632269133	0.037882115342647626	-0.1459112399146451	0.5676757479836603	0.03494500266268241	-0.1385343081605959	0.5455393694183938	0.031135783296036335	-0.12724358520624154	0.5093009615063696	0.018580293618850108	-0.1087294402092985	0.6071992390038654	0.02702369236549912	-0.1258296330459155	0.5898687733469473	0.02407666981508161	-0.1214741746083094	0.5626674530675297	0.020741102673496548	-0.11155592290246297	0.5226677176986787	0.013123118715402393	-0.0931674642439427	0.6105325578869212	0.019399229674318008	-0.10411150457730756	0.5937857119766169	0.015392245347760736	-0.09877416173060463	0.5704791771771727	0.011840814628557905	-0.09075089839895445	0.532300159721225	0.0036113817116164015	-0.08029337029887229	0.6056271530516714	0.006276876649899676	-0.07069356349736558	0.5889544637640503	0.0027120754246330314	-0.0691725032938296	0.5683674827583909	-0.0011449647223279458	-0.06771941232030015	0.5334563943717258	-0.01017992760125408	-0.06703471937095382	0.4622830810018608	-0.023011742144276925	-0.051989820119430985
63	2.100000000000002	0.4882256481307984	0.01028108572429487	-0.16499952446157615	0.4835705920683193	0.0019445267837964186	-0.14409899245670188	0.46394713328852266	0.00023763731860082515	-0.11999865233729233	0.46670002684841716	-0.01946296761311206	-0.08007124643141783	0.5840205619295185	0.03803931678086159	-0.1457040535695434	0.5677340569004236	0.035100368566816476	-0.13834794472502293	0.5455894326281477	0.03128157405649662	-0.12707664234563115	0.5093349440791771	0.01872686477746771	-0.10859347624856787	0.607253738352039	0.026684198334912923	-0.12578998349389608	0.5899114208049093	0.02384359112199097	-0.12141105979549552	0.5626997432328255	0.020658890358742465	-0.11147165162591531	0.5226896883228259	0.013256493266224911	-0.09301771046464827	0.6106288557526418	0.019044247512583434	-0.10401546882805757	0.5938603648455384	0.015144432736658164	-0.0986667159442666	0.5705384033962538	0.011736828202719984	-0.09062592465867952	0.532323976756412	0.0037143637494297943	-0.08013695451457875	0.6056965450594153	0.006076366465196215	-0.07066332734653086	0.5890118216094611	0.002577717057166806	-0.06912077889729501	0.5684147016632219	-0.0012144196458879208	-0.06764078965895953	0.5334799301904063	-0.010152870746463816	-0.06689965197623043	0.4622830810018609	-0.023011742144276925	-0.051989820119430985
64	2.1333333333333355	0.48871834392120006	0.010095303678057721	-0.16488414108186478	0.48391628560594335	0.0018307828358590794	-0.14398825796614703	0.4641246393044285	0.00018990981389210848	-0.12002123327801532	0.46673517082290605	-0.019476462966239894	-0.08006739858265821	0.584045649546181	0.03819474966121905	-0.14556586595962046	0.5677547637524643	0.03524908810031646	-0.13822215313675643	0.5456082479723792	0.031415245087704324	-0.12695967918308643	0.5093516456009632	0.01886205147866793	-0.10847963024659603	0.6072758934547619	0.02640091870500405	-0.12579133332514214	0.5899252953255469	0.023652816073899297	-0.12138625937713644	0.5627088369479628	0.020597933000832236	-0.11141923209759505	0.5226980954243	0.013383877725443638	-0.09289233569775823	0.6106977004104105	0.018741489160549685	-0.10395926546336642	0.5939121127098453	0.01493788053702344	-0.0985948822755548	0.5705793443618998	0.011656598939101426	-0.09053292895788728	0.5323374172562947	0.0038149879115393914	-0.0800074844664655	0.6057506637731751	0.005919009453568325	-0.07065158334929861	0.5890563312698466	0.0024757432363363696	-0.0690885158441738	0.568450898717406	-0.001260981243182302	-0.06758350471764002	0.5334972692103068	-0.010120750686121116	-0.06678869612532506	0.4622830810018609	-0.023011742144276925	-0.051989820119430985
65	2.1666666666666687	0.48907655325298216	0.009942169307759152	-0.16479560510611285	0.484164424059918	0.0017379385411365744	-0.14390154891018359	0.4642440101107017	0.0001552169003987136	-0.12003751529681883	0.46675614241974717	-0.019486716663979164	-0.08006535452066846	0.584015454223368	0.038356685722369666	-0.14551522144156254	0.5677259581728105	0.035393135587929614	-0.13817562410795303	0.5455856249932487	0.03153168871437584	-0.12691042514207912	0.5093452002857131	0.018976010462364912	-0.10840035613493	0.6072579283093332	0.02619291055684042	-0.12584873331293686	0.5899033455411861	0.023516458493515524	-0.12141533041039637	0.5626889711329809	0.020560610218128328	-0.11141281389989187	0.5226889700610273	0.013496947657323899	-0.0928049524840599	0.6107308783657339	0.018513056657215032	-0.10395967624178343	0.5939342417771514	0.014787885980107662	-0.09857487329854464	0.5705963610749153	0.011605937349446482	-0.09048793900673582	0.532337336881051	0.00390660196052639	-0.07991967820837154	0.6057838992817337	0.005821544423665614	-0.07066590968803249	0.5890832574651715	0.0024175098349736857	-0.0690844194307482	0.5684719800640672	-0.001277840403038577	-0.0675574454581	0.5335061194228109	-0.010084740935026926	-0.06671450795394726	0.462283081001861	-0.023011742144276925	-0.051989820119430985
